<svg xmlns="http://www.w3.org/2000/svg" viewBox="0 0 128 128" width="128" height="128">
  <defs>
    <linearGradient id="p" x1="0" y1="0" x2="0" y2="1"><stop offset="0" stop-color="#9179C8"/><stop offset=".5" stop-color="#5D3AAE"/><stop offset="1" stop-color="#5635A0"/></linearGradient>
    <linearGradient id="s" x1="0" y1="0" x2="0" y2="1"><stop offset="0" stop-color="#A8E1FA"/><stop offset="1" stop-color="#D6F2FF"/></linearGradient>
    <rect id="c" x="26" y="12" width="84" height="104" rx="12"/>
    <clipPath id="cc"><use href="#c"/></clipPath>
    <clipPath id="ph"><rect x="44" y="30" width="52" height="48" rx="4"/></clipPath>
  </defs>
  <rect x="32" y="16" width="82" height="102" rx="10" fill="#FFF4D6" stroke="#3B2A1A" stroke-width="7"/>
  <use href="#c" transform="translate(0 5)" fill="#3B2A1A" stroke="#3B2A1A" stroke-width="8"/>
  <use href="#c" fill="url(#p)"/>
  <g clip-path="url(#cc)"><use href="#c" fill="#3F2776" fill-opacity=".35"/><use href="#c" y="-8" fill="url(#p)"/></g>
  <use href="#c" fill="none" stroke="#3B2A1A" stroke-width="8"/>
  <g transform="rotate(-4 70 54)">
    <rect x="40" y="26" width="60" height="56" rx="6" fill="#FFFFFF" stroke="#3B2A1A" stroke-width="5"/>
    <rect x="44" y="30" width="52" height="48" rx="4" fill="url(#s)"/>
    <g clip-path="url(#ph)" stroke="#3B2A1A" stroke-width="3">
      <circle cx="84" cy="42" r="7" fill="#FFE23E"/>
      <path d="M40 80Q58 52 74 66Q84 58 100 74V84H40Z" fill="#44D088"/>
    </g>
  </g>
  <g fill="#E6E9EE" stroke="#3B2A1A" stroke-width="5">
    <rect x="16" y="24" width="20" height="10" rx="5"/><rect x="16" y="46" width="20" height="10" rx="5"/><rect x="16" y="68" width="20" height="10" rx="5"/><rect x="16" y="90" width="20" height="10" rx="5"/>
  </g>
  <path d="M40 98H96" stroke="#FFFFFF" stroke-opacity=".35" stroke-width="5" stroke-linecap="round"/>
</svg>
