<svg xmlns="http://www.w3.org/2000/svg" viewBox="0 0 320 220" width="320" height="220">
  <defs>
    <linearGradient id="fu" x1="0" y1="0" x2="0" y2="1"><stop offset="0" stop-color="#CD966F"/><stop offset=".5" stop-color="#B5652B"/><stop offset="1" stop-color="#A75D28"/></linearGradient>
    <linearGradient id="mz" x1="0" y1="0" x2="0" y2="1"><stop offset="0" stop-color="#E5C0A5"/><stop offset=".5" stop-color="#D99A5E"/><stop offset="1" stop-color="#C89570"/></linearGradient>
    <linearGradient id="er" x1="0" y1="0" x2="0" y2="1"><stop offset="0" stop-color="#B5652B"/><stop offset=".5" stop-color="#8A4A1F"/><stop offset="1" stop-color="#7F441C"/></linearGradient>
    <linearGradient id="hm" x1="0" y1="0" x2="0" y2="1"><stop offset="0" stop-color="#FFBA67"/><stop offset=".5" stop-color="#FF9A1F"/><stop offset="1" stop-color="#EB8E1D"/></linearGradient>
    <linearGradient id="cl" x1="0" y1="0" x2="0" y2="1"><stop offset="0" stop-color="#A8EAD7"/><stop offset=".5" stop-color="#7FE0C4"/><stop offset="1" stop-color="#75CEB4"/></linearGradient>
    <rect id="bd" x="76" y="116" width="226" height="66" rx="33"/>
    <path id="hd" d="M86 54C116 54 134 76 132 104C130 130 112 146 86 146C64 146 46 134 40 116C36 100 50 54 86 54Z"/>
    <path id="dm" d="M38 64C36 32 62 12 94 14C126 16 146 40 140 70Z"/>
    <clipPath id="cb"><use href="#bd"/></clipPath>
    <clipPath id="ch"><use href="#hd"/></clipPath>
    <clipPath id="cd"><use href="#dm"/></clipPath>
  </defs>
  <ellipse cx="184" cy="208" rx="128" ry="9" fill="#3B2A1A" fill-opacity=".18"/>
  <g stroke="#3B2A1A" stroke-width="6" stroke-linejoin="round">
    <path d="M294 140Q312 118 310 88" fill="none" stroke-width="22" stroke-linecap="round"/>
    <path d="M294 140Q312 118 310 88" fill="none" stroke="#B5652B" stroke-width="10" stroke-linecap="round"/>
    <g fill="url(#fu)">
      <rect x="236" y="162" width="24" height="36" rx="11" fill="#A75D28"/>
      <rect x="120" y="162" width="24" height="36" rx="11" fill="#A75D28"/>
    </g>
    <use href="#bd" fill="url(#fu)"/>
    <g clip-path="url(#cb)" stroke="none">
      <path d="M60 168Q190 150 320 168V200H60Z" fill="#D99A5E"/>
      <use href="#bd" fill="#7B451D" fill-opacity=".3" transform="translate(0 64)"/>
      <path d="M150 124Q210 116 270 122" fill="none" stroke="#FFFFFF" stroke-opacity=".45" stroke-width="8" stroke-linecap="round"/>
    </g>
    <use href="#bd" fill="none"/>
    <rect x="262" y="166" width="24" height="36" rx="11" fill="url(#fu)"/>
    <rect x="96" y="166" width="24" height="36" rx="11" fill="url(#fu)"/>
    <path d="M100 194H116M266 194H282" stroke-width="3" stroke-linecap="round"/>
        <use href="#hd" fill="url(#fu)"/>
    <g clip-path="url(#ch)" stroke="none">
      <use href="#hd" fill="#7B451D" fill-opacity=".35" transform="translate(0 70)"/>
    </g>
    <use href="#hd" fill="none"/>
    <path d="M90 140Q112 160 140 146" fill="none" stroke-width="18" stroke-linecap="round"/>
    <path d="M90 140Q112 160 140 146" fill="none" stroke="url(#cl)" stroke-width="8" stroke-linecap="round"/>
    <path d="M116 74C138 72 146 98 140 128C136 146 124 150 118 140C112 122 108 96 116 74Z" fill="url(#er)"/>
    <path d="M128 92Q134 106 132 124" fill="none" stroke="#CD966F" stroke-width="4" stroke-linecap="round" stroke-opacity=".8"/>
    <path d="M18 112C16 94 34 86 52 90C70 94 78 108 72 124C66 138 44 140 30 134C22 130 18 122 18 112Z" fill="url(#mz)"/>
    <g id="face">
      <path d="M38 132Q48 142 60 134" fill="none" stroke-width="5" stroke-linecap="round"/>
      <path d="M44 136Q46 154 54 152Q60 150 58 136Z" fill="#DE7D87" stroke-width="4"/>
      <ellipse cx="22" cy="106" rx="11" ry="9" fill="#3B2A1A"/>
      <ellipse cx="19" cy="103" rx="4" ry="2.5" fill="#FFFFFF" fill-opacity=".7" stroke="none"/>
      <ellipse cx="66" cy="90" rx="13" ry="15" fill="#FFFFFF" stroke-width="4"/>
      <ellipse cx="100" cy="90" rx="13" ry="15" fill="#FFFFFF" stroke-width="4"/>
      <circle cx="64" cy="93" r="8.5" fill="#3B2A1A" stroke="none"/>
      <circle cx="97" cy="93" r="8.5" fill="#3B2A1A" stroke="none"/>
      <circle cx="61" cy="88" r="3.5" fill="#FFFFFF" stroke="none"/>
      <circle cx="94" cy="88" r="3.5" fill="#FFFFFF" stroke="none"/>
      <circle cx="68" cy="97" r="1.6" fill="#FFFFFF" stroke="none"/>
      <circle cx="101" cy="97" r="1.6" fill="#FFFFFF" stroke="none"/>
      <path d="M56 72Q66 66 76 72M90 72Q100 66 110 72" fill="none" stroke="#8A4A1F" stroke-width="5" stroke-linecap="round"/>
    </g>
    <g transform="translate(2 -12) rotate(-14 90 52)">
      <use href="#dm" fill="url(#hm)"/>
      <g clip-path="url(#cd)" stroke="none">
        <use href="#dm" fill="#AD6915" fill-opacity=".35"/>
        <use href="#dm" y="-9" fill="url(#hm)"/>
        <path d="M54 46Q62 28 82 22" fill="none" stroke="#FFFFFF" stroke-opacity=".55" stroke-width="7" stroke-linecap="round"/>
      </g>
      <rect x="80" y="10" width="20" height="62" rx="10" fill="#FFBA67"/>
      <use href="#dm" fill="none"/>
      <rect x="24" y="60" width="132" height="18" rx="9" fill="#EB8E1D"/>
      <path d="M34 66H90" stroke="#FFFFFF" stroke-opacity=".5" stroke-width="4" stroke-linecap="round"/>
    </g>
    <path d="M112 152V160" stroke-width="3"/>
    <path d="M104 164Q101 160 104 158Q106 156 108 158H118Q120 156 122 158Q125 160 122 164Q125 168 122 170Q120 172 118 170H108Q106 172 104 170Q101 168 104 164Z" fill="#FFC21A" stroke-width="3"/>
  </g>
</svg>
